<svg xmlns="http://www.w3.org/2000/svg" width="400" height="800" viewBox="0 0 400 800">
  <!-- 背景 -->
  <rect width="400" height="800" fill="#f5f5f5" rx="20" ry="20" />
  
  <!-- 手机框架 -->
  <rect x="10" y="10" width="380" height="780" fill="#ffffff" stroke="#cccccc" stroke-width="2" rx="20" ry="20" />
  
  <!-- 状态栏 -->
  <rect x="10" y="10" width="380" height="30" fill="#f0f0f0" stroke="#cccccc" stroke-width="1" rx="20" ry="20" />
  
  <!-- 标题栏 -->
  <rect x="10" y="40" width="380" height="50" fill="#2E8B57" rx="0" ry="0" />
  <text x="200" y="70" font-family="Arial" font-size="18" text-anchor="middle" fill="#ffffff" font-weight="bold">积分商城</text>
  <path d="M50,65 L35,65 L35,55 L50,55 Z" fill="none" stroke="#ffffff" stroke-width="2" />
  <path d="M40,60 L30,60" fill="none" stroke="#ffffff" stroke-width="2" />
  <circle cx="350" cy="65" r="15" fill="#ffffff" fill-opacity="0.3" />
  
  <!-- 积分信息 -->
  <rect x="30" y="110" width="340" height="60" fill="#e8f5e9" stroke="#2E8B57" stroke-width="1" rx="10" ry="10" />
  <text x="50" y="140" font-family="Arial" font-size="16" text-anchor="start" fill="#333333">我的积分</text>
  <text x="320" y="140" font-family="Arial" font-size="20" text-anchor="end" fill="#2E8B57" font-weight="bold">120</text>
  <text x="50" y="160" font-family="Arial" font-size="14" text-anchor="start" fill="#666666">今日已获得: 25积分</text>
  
  <!-- 分类标签 -->
  <rect x="30" y="190" width="340" height="40" fill="#ffffff" stroke="#dddddd" stroke-width="1" rx="5" ry="5" />
  
  <rect x="40" y="195" width="80" height="30" fill="#2E8B57" rx="15" ry="15" />
  <text x="80" y="215" font-family="Arial" font-size="14" text-anchor="middle" fill="#ffffff">全部</text>
  
  <text x="150" y="215" font-family="Arial" font-size="14" text-anchor="middle" fill="#666666">实物</text>
  <text x="220" y="215" font-family="Arial" font-size="14" text-anchor="middle" fill="#666666">虚拟</text>
  <text x="290" y="215" font-family="Arial" font-size="14" text-anchor="middle" fill="#666666">限时</text>
  
  <!-- 商品列表 -->
  <!-- 商品1 -->
  <rect x="30" y="250" width="160" height="200" fill="#ffffff" stroke="#dddddd" stroke-width="1" rx="10" ry="10" />
  <rect x="45" y="270" width="130" height="100" fill="#f0f0f0" rx="5" ry="5" />
  <text x="110" y="320" font-family="Arial" font-size="12" text-anchor="middle" fill="#999999">商品图片</text>
  <text x="110" y="390" font-family="Arial" font-size="14" text-anchor="middle" fill="#333333" font-weight="bold">单词本</text>
  <text x="70" y="410" font-family="Arial" font-size="14" text-anchor="start" fill="#2E8B57">50积分</text>
  <rect x="110" y="420" width="60" height="20" fill="#3CB371" rx="10" ry="10" />
  <text x="140" y="435" font-family="Arial" font-size="12" text-anchor="middle" fill="#ffffff">兑换</text>
  
  <!-- 商品2 -->
  <rect x="210" y="250" width="160" height="200" fill="#ffffff" stroke="#dddddd" stroke-width="1" rx="10" ry="10" />
  <rect x="225" y="270" width="130" height="100" fill="#f0f0f0" rx="5" ry="5" />
  <text x="290" y="320" font-family="Arial" font-size="12" text-anchor="middle" fill="#999999">商品图片</text>
  <text x="290" y="390" font-family="Arial" font-size="14" text-anchor="middle" fill="#333333" font-weight="bold">学习笔记本</text>
  <text x="250" y="410" font-family="Arial" font-size="14" text-anchor="start" fill="#2E8B57">80积分</text>
  <rect x="290" y="420" width="60" height="20" fill="#3CB371" rx="10" ry="10" />
  <text x="320" y="435" font-family="Arial" font-size="12" text-anchor="middle" fill="#ffffff">兑换</text>
  
  <!-- 商品3 -->
  <rect x="30" y="470" width="160" height="200" fill="#ffffff" stroke="#dddddd" stroke-width="1" rx="10" ry="10" />
  <rect x="45" y="490" width="130" height="100" fill="#f0f0f0" rx="5" ry="5" />
  <text x="110" y="540" font-family="Arial" font-size="12" text-anchor="middle" fill="#999999">商品图片</text>
  <text x="110" y="610" font-family="Arial" font-size="14" text-anchor="middle" fill="#333333" font-weight="bold">会员1天</text>
  <text x="70" y="630" font-family="Arial" font-size="14" text-anchor="start" fill="#2E8B57">100积分</text>
  <rect x="110" y="640" width="60" height="20" fill="#3CB371" rx="10" ry="10" />
  <text x="140" y="655" font-family="Arial" font-size="12" text-anchor="middle" fill="#ffffff">兑换</text>
  
  <!-- 商品4 -->
  <rect x="210" y="470" width="160" height="200" fill="#ffffff" stroke="#dddddd" stroke-width="1" rx="10" ry="10" />
  <rect x="225" y="490" width="130" height="100" fill="#f0f0f0" rx="5" ry="5" />
  <text x="290" y="540" font-family="Arial" font-size="12" text-anchor="middle" fill="#999999">商品图片</text>
  <text x="290" y="610" font-family="Arial" font-size="14" text-anchor="middle" fill="#333333" font-weight="bold">学习资料包</text>
  <text x="250" y="630" font-family="Arial" font-size="14" text-anchor="start" fill="#2E8B57">30积分</text>
  <rect x="290" y="640" width="60" height="20" fill="#3CB371" rx="10" ry="10" />
  <text x="320" y="655" font-family="Arial" font-size="12" text-anchor="middle" fill="#ffffff">兑换</text>
  
  <!-- 底部导航栏 -->
  <rect x="10" y="740" width="380" height="50" fill="#f9f9f9" stroke="#eeeeee" stroke-width="1" />
  
  <!-- 导航图标 -->
  <circle cx="80" cy="765" r="15" fill="#dddddd" />
  <text x="80" y="785" font-family="Arial" font-size="10" text-anchor="middle" fill="#333333">首页</text>
  
  <circle cx="200" cy="765" r="15" fill="#dddddd" />
  <text x="200" y="785" font-family="Arial" font-size="10" text-anchor="middle" fill="#333333">学习</text>
  
  <circle cx="320" cy="765" r="15" fill="#2E8B57" />
  <text x="320" y="785" font-family="Arial" font-size="10" text-anchor="middle" fill="#333333">我的</text>
  
  <!-- 文字提示 -->
  <text x="200" y="710" font-family="Arial" font-size="14" text-anchor="middle" fill="#999999">积分商城页面低保真原型图</text>
</svg>